<svg width="238" height="106" viewBox="0 0 238 106" fill="none" xmlns="http://www.w3.org/2000/svg">
<path fill-rule="evenodd" clip-rule="evenodd" d="M106.953 60.6049C106.953 62.1258 107.187 67.6637 106.68 68.7167C106.544 69.0482 106.329 69.1847 106.232 69.5747H109.821C109.49 68.3462 109.099 69.9452 109.099 65.7528L108.982 62.3988C108.963 61.9308 108.865 61.8333 108.865 61.3264L109.86 63.5688C110.055 63.9588 110.231 64.1343 110.445 64.5243C110.68 64.9143 110.836 65.1678 111.089 65.5578L112.943 68.5997C113.567 69.8087 112.728 69.5747 116.396 69.5747C117.391 69.5747 115.908 69.3992 115.908 67.0592C115.908 65.5773 115.771 60.7024 116.103 59.6104C116.259 59.1229 116.513 58.9279 116.747 58.5769H113.04C113.469 59.2204 113.567 58.9669 113.781 60.0004C113.938 60.7804 113.879 63.3348 113.879 64.3098C113.879 65.2263 113.996 65.6748 113.996 66.4743L113.742 66.0063C113.664 65.8308 113.625 65.6943 113.528 65.5188C113.352 65.1483 113.196 64.8558 113.001 64.4853C112.377 63.1983 109.899 59.6104 109.821 58.5769H106.232C106.349 59.0059 106.505 58.9669 106.7 59.4154C106.856 59.7274 106.953 60.1369 106.953 60.6049Z" fill="white"/>
<path fill-rule="evenodd" clip-rule="evenodd" d="M192.714 60.3709V67.5467C192.714 68.8727 192.207 68.8142 191.992 69.5747H195.582C195.445 69.0287 195.035 69.0677 194.899 67.9952C194.743 66.9422 194.996 64.5828 194.821 63.4128L194.626 61.2094C194.723 61.3459 195.445 63.4323 196.85 65.5578L198.781 68.6582C199.386 69.8282 198.84 69.5747 202.156 69.5747C203.151 69.5747 201.688 69.3992 201.688 67.0592C201.688 65.6163 201.512 60.6439 201.883 59.6104C202.058 59.1034 202.273 58.9474 202.527 58.5769H198.937C199.093 59.0254 198.918 58.5574 199.113 58.8889C199.269 59.1229 199.21 58.9864 199.327 59.2594C199.834 60.3514 199.659 62.8863 199.639 64.3098C199.639 65.2263 199.776 65.6163 199.776 66.4743L196.557 60.7024C196.206 60.1564 195.64 59.2399 195.582 58.5769H191.992C192.187 59.1229 192.714 59.2984 192.714 60.3709Z" fill="white"/>
<path fill-rule="evenodd" clip-rule="evenodd" d="M157.774 61.3264L157.813 61.3654C157.813 61.3654 157.774 61.3459 157.774 61.3264ZM162.924 66.3573L161.402 63.4518C160.739 62.3793 158.964 59.5324 158.749 58.5769H155.159C156.369 60.3904 155.979 61.3264 155.979 64.0758C155.979 65.2653 156.135 67.5272 155.745 68.5022C155.569 68.9507 155.257 69.2042 155.159 69.5747H158.749C158.593 69.0482 158.242 68.8337 158.086 68.0732C157.949 67.4687 158.027 64.5633 158.027 63.7248C158.027 62.8083 157.91 62.4183 157.91 61.5603C158.086 61.7748 158.047 61.7163 158.164 62.0283C158.905 63.9783 160.173 65.7528 161.266 67.5467L162.456 69.5747H165.675C165.519 68.9702 165.05 69.0872 164.855 67.2932L164.836 60.9754C164.914 59.5909 165.167 59.3374 165.675 58.5769H162.085C162.475 59.1619 162.592 59.1814 162.748 60.0784C162.865 60.7414 162.807 63.4518 162.807 64.3293C162.807 65.1483 162.924 65.4798 162.924 66.3573Z" fill="white"/>
<path fill-rule="evenodd" clip-rule="evenodd" d="M184.696 68.1512C183.876 68.1512 183.018 67.8587 182.433 67.2933C180.677 65.6358 180.696 59.9614 184.579 59.9614C186.725 59.9614 187.934 61.5799 187.934 63.4713V64.5633C187.934 66.4353 186.588 68.1512 184.696 68.1512ZM178.843 64.0758C178.843 64.7583 179.038 65.7333 179.233 66.3183C179.916 68.3267 181.906 69.8087 183.974 69.8087C186.861 69.8087 188.715 69.1067 189.963 66.3573C191.251 63.5298 190.041 58.2259 184.696 58.2259C181.087 58.2259 178.843 60.7999 178.843 64.0758Z" fill="white"/>
<path fill-rule="evenodd" clip-rule="evenodd" d="M69.0284 67.8977H67.5847V64.5633C69.7892 64.5633 70.5891 64.2903 70.5891 66.5913C70.5891 67.3517 69.8282 67.8977 69.0284 67.8977ZM68.9113 62.8863H67.5847V60.1369C68.6187 60.1369 70.1014 59.9614 70.1014 61.4434C70.1014 62.2233 69.6527 62.8863 68.9113 62.8863ZM65.3217 60.4879V67.5467C65.3217 68.0147 65.1852 68.3072 65.0096 68.6582C64.795 69.1067 64.5804 69.2237 64.4828 69.5747C67.2141 69.5747 72.9692 70.4327 72.9692 66.3573C72.9692 65.0508 71.8962 63.8223 70.7061 63.7248C71.3889 63.2373 72.3839 62.9448 72.3839 61.2094C72.3839 57.6799 67.6628 58.5769 64.4828 58.5769C64.834 59.1034 65.3217 59.6104 65.3217 60.4879Z" fill="white"/>
<path fill-rule="evenodd" clip-rule="evenodd" d="M94.975 67.8977H93.6679V60.1369C95.6383 60.1369 97.4721 60.0979 98.0769 62.3013C98.7207 64.6608 98.2525 67.8977 94.975 67.8977ZM91.3854 60.6049C91.3854 62.1258 91.639 67.6637 91.1318 68.7167C90.9757 69.0482 90.7806 69.1847 90.6831 69.5747C94.2922 69.5747 98.2525 70.1012 99.9302 67.2347C100.984 65.4018 100.964 62.8278 99.9693 61.0144C98.2135 57.8164 94.1557 58.5769 90.6831 58.5769C90.8002 59.0059 90.9562 58.9669 91.1513 59.4154C91.3074 59.7274 91.3854 60.1369 91.3854 60.6049Z" fill="white"/>
<path fill-rule="evenodd" clip-rule="evenodd" d="M171.898 67.8977H170.591V60.1369C171.8 60.1369 173.322 60.0784 174.141 60.8779C175.585 62.2233 175.429 65.9868 174.2 67.0982C173.634 67.6247 172.951 67.8977 171.898 67.8977ZM168.308 60.4879V67.6637C168.308 68.5997 167.762 68.9312 167.587 69.5747C171.079 69.5747 175.195 70.0427 176.853 67.2347C178.258 64.7973 177.868 60.5659 174.824 59.1229C173.147 58.3234 169.615 58.5769 167.587 58.5769C167.704 58.9669 168.308 59.4934 168.308 60.4879Z" fill="white"/>
<path fill-rule="evenodd" clip-rule="evenodd" d="M81.1043 61.3263C81.1043 62.9838 81.2409 66.9227 80.9287 68.3267C80.7532 69.0872 80.4215 69.0482 80.2654 69.5747C81.2994 69.5747 82.3724 69.6137 83.4063 69.5942C84.9085 69.5552 83.3868 69.3407 83.3868 67.7807V60.1369C85.3182 60.1369 86.3717 60.1759 86.3717 62.2818C86.3717 63.8418 85.1426 63.8418 83.6209 63.8418C83.8551 64.8558 86.6253 68.5607 86.7228 69.8087C87.8934 69.8087 88.9468 69.3407 90.0783 69.3407V69.1067C89.298 69.0287 88.4786 67.9562 88.0884 67.3712C87.5617 66.5717 87.1325 65.8113 86.6058 65.0313C87.0935 64.9143 87.8153 64.4073 88.108 64.0173C89.298 62.4183 89.0639 59.3764 86.04 58.6744C85.0841 58.4404 81.6311 58.5769 80.2654 58.5769C80.5386 58.9864 80.7532 59.1034 80.9092 59.7274C81.0458 60.1954 81.1043 60.7804 81.1043 61.3263Z" fill="white"/>
<path fill-rule="evenodd" clip-rule="evenodd" d="M47.9784 69.8087C53.0117 69.8087 52.641 65.7528 52.641 62.0478C52.641 59.9029 52.4459 59.9419 53.3628 58.5769H49.6562C49.7732 59.0839 49.9878 58.9279 50.1829 59.6104C50.4951 60.7414 50.3585 63.9003 50.3585 65.2653C50.3585 67.6442 49.4611 68.0147 47.8614 68.0147C46.7104 68.0147 45.9495 67.0982 45.9495 65.9868V60.3709C45.9495 59.6494 46.3592 59.0254 46.6518 58.5769H42.8281C43.1793 59.0839 43.3744 59.2009 43.5109 59.9224C44.1547 63.0813 41.9502 69.8087 47.9784 69.8087Z" fill="white"/>
<path fill-rule="evenodd" clip-rule="evenodd" d="M26.2067 60.9754C26.2653 61.7943 27.3187 64.8948 27.6309 65.5188H24.7631L26.2067 60.9754ZM24.529 59.5324C24.529 60.6049 24.0608 61.3069 23.7681 62.3598C23.495 63.2568 23.1243 64.0173 22.8512 64.9143C22.5781 65.8308 21.9343 67.6637 21.4076 68.5022C21.193 68.8337 20.8028 69.1652 20.7053 69.5747C21.4271 69.5747 22.1294 69.5747 22.8512 69.5747C24.646 69.5942 23.8072 69.6527 23.8072 68.6192C23.8072 68.0537 24.0608 67.6832 24.1778 67.1957H28.2356C28.2747 67.6637 28.4112 67.8392 28.5088 68.3462C28.6258 68.9312 28.4892 69.0092 28.3527 69.5747C29.0745 69.5747 29.7963 69.5747 30.5182 69.5747C31.24 69.5747 32.2935 69.7697 31.6887 69.1262C30.4986 67.8587 29.6012 64.7193 29.0355 63.0423C28.4307 61.2679 27.4748 59.8834 28.3527 58.5769H24.1778C24.2949 59.0644 24.529 58.9669 24.529 59.5324Z" fill="white"/>
<path fill-rule="evenodd" clip-rule="evenodd" d="M230.873 65.6358C230.97 65.1873 231.107 64.9728 231.224 64.5633C231.556 63.4518 232.18 62.3208 232.18 61.0924C232.473 61.2874 233.507 65.0313 233.741 65.5188C233.194 65.5188 231.087 65.3823 230.873 65.6358ZM230.639 59.4154C230.639 60.7024 230.268 61.3069 229.819 62.5353C229.098 64.4658 228.434 67.2152 227.381 68.7167C226.679 69.7307 226.035 69.5747 229.8 69.5747C230.424 69.5747 229.917 69.2042 229.917 68.8532C229.917 67.9952 230.21 67.8002 230.268 67.1957H234.345C234.462 67.6832 234.697 68.1512 234.697 68.7362C234.697 69.7307 233.35 69.5747 237.681 69.5747C238.364 69.5747 237.74 69.0872 237.506 68.7947C236.589 67.6052 235.165 63.0228 234.482 61.1899C233.702 59.1424 234.287 59.2009 234.462 58.5769H230.268C230.444 58.8304 230.639 58.9864 230.639 59.4154Z" fill="white"/>
<path fill-rule="evenodd" clip-rule="evenodd" d="M118.542 58.5769C118.99 59.2204 119.38 59.6299 119.38 60.7219C119.38 62.4183 119.615 67.5662 119.107 68.6972C118.6 69.8477 116.669 69.5747 126.091 69.5747C126.091 69.1847 126.462 66.6887 126.56 66.4742C125.974 66.6302 125.584 67.8977 123.341 67.8977H121.663V64.4463C125.214 64.4463 123.926 65.0508 124.882 65.4018C124.882 64.3098 125.233 63.6468 125.253 62.7693L121.663 62.8863V60.1369C126.521 60.1369 125.155 60.8389 126.208 61.2093C126.189 60.4294 125.955 59.6494 125.955 58.4599C125.194 58.4599 124.979 58.5769 124.297 58.5769H118.542Z" fill="white"/>
<path fill-rule="evenodd" clip-rule="evenodd" d="M204.321 58.5769C204.848 59.3764 205.16 59.4349 205.16 60.8584C205.16 62.2233 205.277 67.3322 205.004 68.3657C204.575 69.9257 201.824 69.5747 211.852 69.5747C211.93 68.6972 212.144 67.2932 212.32 66.4742C211.774 66.6107 212.164 66.5717 211.754 66.9617C210.545 68.1122 209.004 67.8977 207.423 67.8977V64.4463C208.594 64.4463 209.53 64.2903 210.194 65.0118C210.564 65.4018 210.252 65.2458 210.662 65.4018C210.662 64.3098 210.993 63.6468 211.013 62.7693L207.423 62.8863V60.1369C208.555 60.1369 209.862 60.0394 210.857 60.4099C211.696 60.7414 211.54 61.0534 211.969 61.2093C211.969 60.7999 211.891 60.4294 211.832 59.9029C211.793 59.3959 211.735 59.1424 211.735 58.4599C210.993 58.4599 210.798 58.5769 210.057 58.5769H204.321Z" fill="white"/>
<path fill-rule="evenodd" clip-rule="evenodd" d="M4.06429 64.3098C2.65966 64.3098 2.99131 64.8558 2.99131 60.4879C2.99131 60.0784 3.2059 60.1369 3.59608 60.1369C5.27383 60.1369 5.99565 60.7024 5.99565 62.2819C5.99565 63.5493 5.31285 64.3098 4.06429 64.3098ZM3.10836 67.8393C2.89376 67.3713 2.95229 66.3963 3.01082 65.8698L4.78611 65.8503C6.19074 65.9673 7.34176 65.1483 7.82947 64.2318C8.59031 62.8083 8.64884 60.2149 6.67846 59.0839C5.29334 58.2649 2.03538 58.5769 0.00646973 58.5769C0.279592 58.9669 0.396644 59.0254 0.591732 59.5519C0.728293 59.9419 0.845345 60.3319 0.845345 60.8389C0.884363 62.3404 1.02092 67.2933 0.591732 68.4827C0.31861 69.2627 0.143031 69.0482 0.00646973 69.5747H3.83018C3.69362 69.0677 3.14738 68.8142 3.10836 67.8393Z" fill="white"/>
<path fill-rule="evenodd" clip-rule="evenodd" d="M128.003 61.0924C128.003 63.4713 128.979 64.0368 131.281 64.9923C133.602 65.9283 133.407 68.0147 130.988 68.0147C128.608 68.0147 128.413 66.6498 127.75 66.4743C127.769 67.2737 128.003 68.2292 128.003 69.1067C130.637 70.5107 135.183 69.8477 135.183 66.4743C135.183 65.0508 134.324 63.9783 133.134 63.3543C132.627 63.0813 131.866 62.7498 131.32 62.5353C129.486 61.7943 129.935 60.0199 131.827 60.0199C132.568 60.0199 133.466 60.2734 133.934 60.7609C134.246 61.0729 134.032 61.0534 134.461 61.3264C134.461 60.4099 134.344 59.7469 134.344 58.6939C132.568 58.2844 130.813 58.0114 129.193 59.0644C128.667 59.4154 128.003 60.1954 128.003 61.0924Z" fill="white"/>
<path fill-rule="evenodd" clip-rule="evenodd" d="M213.764 61.2093C213.764 62.9838 214.388 63.7053 215.812 64.4268C216.671 64.8753 218.66 65.3238 218.66 66.5912C218.66 68.5217 215.91 68.1707 214.837 67.5467C213.588 66.8057 214.193 66.6497 213.53 66.4742C213.588 67.2932 213.764 68.1902 213.764 69.1067C214.993 69.7502 216.768 69.9257 218.329 69.5942C221.099 69.0092 222.601 64.8168 218.095 62.9838C217.217 62.6328 215.91 62.1453 215.91 61.2093C215.91 59.8834 218.036 59.7469 219.226 60.4099C219.889 60.7609 219.811 61.0144 220.221 61.3263C220.221 60.3514 220.104 59.7469 220.104 58.6939C218.329 58.2844 216.573 58.0309 214.954 59.0644C214.407 59.4154 213.764 60.2929 213.764 61.2093Z" fill="white"/>
<path fill-rule="evenodd" clip-rule="evenodd" d="M9.09753 61.3263C9.60476 61.1508 9.85837 60.2539 10.8923 60.2539H12.336C12.336 61.8333 12.5116 67.4297 12.0824 68.5022C11.9068 68.9507 11.5947 69.2042 11.4971 69.5747H15.4379C15.2818 68.9897 14.599 68.7947 14.599 67.0592V60.2539C15.672 60.2539 16.2767 60.1174 17.0571 60.6634C17.6033 61.0339 17.3497 61.1508 17.8374 61.3263C17.8374 60.3514 17.5838 59.3959 17.5838 58.4599L12.5701 58.5769C11.3215 58.5769 10.5607 58.4599 9.33164 58.4599C9.33164 59.4154 9.09753 60.2929 9.09753 61.3263Z" fill="white"/>
<path fill-rule="evenodd" clip-rule="evenodd" d="M135.534 61.3264C135.943 61.1704 135.612 61.3459 135.924 61.0144C136.138 60.7804 136.119 60.7609 136.373 60.6049C137.133 60.1369 137.894 60.2539 138.889 60.2539C138.889 61.9698 139.084 67.0983 138.636 68.3657C138.421 69.0092 138.05 69.1262 137.933 69.5747H141.991L141.718 69.1457C141.698 69.1262 141.679 69.1067 141.659 69.0872L141.269 68.3852C140.86 67.3322 141.035 61.7359 141.035 60.2539C144.683 60.2539 143.279 61.0339 144.391 61.3264C144.157 60.8389 144.235 58.8694 144.098 58.6354C143.903 58.3234 143.142 58.4404 142.752 58.5184C140.977 58.7914 137.738 58.4599 135.885 58.4599C135.69 59.3179 135.729 60.4684 135.534 61.3264Z" fill="white"/>
<path fill-rule="evenodd" clip-rule="evenodd" d="M71.7791 87.5144C69.5746 87.5144 70.1014 86.5589 70.1014 82.971H71.2914C74.1982 82.971 74.2957 87.5144 71.7791 87.5144ZM71.1743 82.2495H70.1014V78.7785C70.8232 78.7785 71.623 78.72 72.1498 79.1295C73.2618 80.007 72.5985 82.2495 71.1743 82.2495ZM67.3506 78.6615C68.1895 78.6615 68.9113 78.4276 68.9113 80.2215V86.6759C68.9113 87.6509 67.2336 86.8709 67.2336 87.6314C67.2336 88.0994 67.4872 87.9044 68.0529 87.8654C68.4626 87.8654 69.1064 87.8459 69.4966 87.8849C70.6671 87.9629 72.5205 88.8209 73.9641 87.4364C75.6223 85.8374 74.959 82.6785 72.735 82.4835C72.9887 82.1325 73.2423 82.0935 73.5349 81.7425C74.4713 80.631 74.3543 78.3496 71.623 77.9791C70.7061 77.8426 68.17 78.3301 67.3506 77.9401V78.6615Z" fill="white"/>
<path fill-rule="evenodd" clip-rule="evenodd" d="M35.6489 63.4713V63.7248L38.7313 68.1707C39.3751 69.1652 39.1995 68.9702 39.6092 69.8087C40.253 69.8087 42.0088 69.3407 42.8281 69.3407V69.1067C41.7357 69.0092 40.8773 67.2737 40.292 66.5133L38.1656 63.3543L40.4091 60.2344C41.1114 59.3569 41.9698 58.7719 42.1063 58.5769H38.8874C38.6338 59.6299 37.2486 61.2484 36.5463 62.3403C36.3122 62.6913 35.9416 63.2763 35.6489 63.4713Z" fill="white"/>
<path fill-rule="evenodd" clip-rule="evenodd" d="M148.097 84.2774C148.097 82.659 148.448 80.748 148.448 79.9875C147.961 80.1045 147.688 80.241 147.161 80.358C146.712 80.4555 146.166 80.475 145.698 80.5725V81.294C146.244 81.2745 146.634 81.099 147.141 81.06L146.966 84.0044C146.81 84.9599 146.946 86.0129 146.907 87.0269C146.829 88.1969 146.537 91.6093 146.303 92.6623C146.732 92.6233 146.868 92.5063 147.258 92.4088C147.258 91.1803 147.961 87.0659 148.273 85.7789C148.507 84.6869 149.912 81.138 151.082 80.826C151.706 81.996 151.355 86.9294 149.678 87.5534C149.131 87.7484 149.365 87.4559 149.053 87.8654C149.795 88.6648 151.394 86.9879 151.765 86.3834C152.487 85.1549 153.384 79.8705 151.804 79.8705C150.185 79.8705 149.034 82.269 148.448 83.5754L148.234 84.0629C148.156 84.2189 148.175 84.1994 148.097 84.2774Z" fill="white"/>
<path fill-rule="evenodd" clip-rule="evenodd" d="M35.6489 63.7248C35.4929 63.5298 35.4929 63.6663 35.6489 63.4713C35.6294 62.4573 35.5514 60.3514 35.7465 59.6299C35.9026 59.0449 36.1172 59.0839 36.2537 58.5769H32.5471C33.2299 59.5909 33.1713 59.4544 33.3469 60.8779V67.1567C33.0348 69.6332 32.7812 68.6777 32.5471 69.5747H36.2537C36.1172 68.9702 35.4344 68.6192 35.6099 66.9227C35.727 65.8503 35.4929 64.4268 35.6489 63.7248Z" fill="white"/>
<path fill-rule="evenodd" clip-rule="evenodd" d="M55.6259 60.6049C55.6259 62.2038 55.821 67.5857 55.4113 68.6387C55.2357 69.0677 55.0211 69.1457 54.9041 69.5747H58.7473C58.5522 68.8727 57.9084 69.0482 57.9084 66.8252C57.9084 65.3823 57.7913 61.0144 58.045 59.8054C58.162 59.2594 58.4742 58.9864 58.7473 58.5769H54.9041C55.0601 59.1034 55.6259 59.2594 55.6259 60.6049Z" fill="white"/>
<path fill-rule="evenodd" clip-rule="evenodd" d="M150.243 60.9754C150.243 62.5353 150.419 67.4687 149.99 68.6192C149.6 69.6722 148 69.5747 153.228 69.5747C153.072 68.9117 152.526 68.7362 152.526 67.4297C152.526 65.9673 152.35 60.5074 152.721 59.4934C152.896 58.9864 153.111 58.9474 153.365 58.5769H149.404C149.619 58.9084 149.873 59.1034 150.029 59.5129C150.146 59.8639 150.243 60.4489 150.243 60.9754Z" fill="white"/>
<path fill-rule="evenodd" clip-rule="evenodd" d="M75.3687 60.7219C75.3687 62.4183 75.5833 67.5662 75.0761 68.6972C74.6274 69.7112 73.2618 69.5747 78.1195 69.5747C79.1924 69.5747 77.6317 69.4577 77.6317 67.4297C77.6317 65.8503 77.4366 60.3904 77.8658 59.4154C78.0804 58.9474 78.2365 58.9474 78.4706 58.5769H74.5298C74.842 59.0449 75.3687 59.3764 75.3687 60.7219Z" fill="white"/>
<path fill-rule="evenodd" clip-rule="evenodd" d="M223.206 61.4434C223.206 62.9643 223.323 66.9032 223.05 68.2097C222.874 68.9702 222.504 69.1067 222.367 69.5747H226.21C226.093 69.1457 225.781 69.0092 225.586 68.4047C225.235 67.2737 225.254 60.8974 225.566 59.7274C225.723 59.1034 225.937 58.9864 226.21 58.5769H222.367C222.991 59.4934 223.206 59.9809 223.206 61.4434Z" fill="white"/>
<path fill-rule="evenodd" clip-rule="evenodd" d="M84.928 76.8676C85.5523 77.5696 85.5913 76.9456 86.3326 77.5111C86.5277 77.6671 86.6448 77.8035 86.8399 77.9595L87.0155 78.135C89.8052 80.904 89.5516 87.2804 87.4446 87.2804C85.9035 87.2804 86.0205 85.7789 86.0205 84.5309C86.0205 83.4584 86.1961 82.542 86.4887 81.762C86.6448 81.3915 86.7423 81.0405 87.0545 80.787C87.5617 80.4165 87.8738 80.6505 87.9324 79.9875C86.6058 79.9875 86.0205 80.6895 85.5523 81.567C84.3037 83.9069 84.2842 88.1189 86.3717 88.1189C87.3471 88.1189 89.1029 87.0269 89.3955 86.7149C90.1954 85.8179 90.3124 84.4529 90.3124 83.2049C90.3124 81.372 89.8247 80.202 89.1614 78.993C88.5762 77.9205 88.2055 77.5696 87.4251 76.7896C87.2691 76.6336 87.2105 76.5751 87.0545 76.4386C86.7228 76.1071 86.8789 76.4386 86.7228 76.0291C86.1571 76.0486 85.1816 76.5361 84.928 76.8676Z" fill="white"/>
<path fill-rule="evenodd" clip-rule="evenodd" d="M136.49 81.177C136.568 81.489 136.607 81.528 136.724 81.7815C137.094 81.5865 137.543 81.255 137.933 81.177C138.538 81.5865 139.709 83.5559 140.196 84.2774L139.026 85.8569C138.733 86.2859 138.187 87.2804 137.563 87.2804C136.138 87.2804 138.362 83.6924 137.055 84.4724C136.821 84.6089 135.573 88.1189 137.446 88.1189C139.026 88.1189 140.352 85.3304 140.801 84.9989L142.713 88.1189C144.137 87.1439 143.571 87.4754 144.976 86.7929C144.917 86.4809 144.878 86.4419 144.742 86.1884C143.376 87.1244 143.337 86.7539 142.381 85.3304C141.991 84.7844 141.64 84.3554 141.269 83.8094C141.659 83.2245 143.181 80.6895 143.903 80.6895C144.703 80.6895 144.313 82.113 144.235 82.4835C144.157 82.9905 144.176 82.9515 144.742 83.088C144.781 82.6395 145.893 79.8705 144.137 79.8705C143.162 79.8705 142.615 80.5335 142.147 81.099C141.874 81.4305 141.698 81.684 141.464 82.074C141.191 82.542 141.172 82.8345 140.684 82.971L139.865 81.3915C139.533 80.8455 139.299 80.4165 139.006 79.8705C138.655 79.9485 138.128 80.358 137.777 80.553C137.367 80.8065 136.919 80.943 136.49 81.177Z" fill="white"/>
<path fill-rule="evenodd" clip-rule="evenodd" d="M102.408 80.6895V81.411C102.7 81.2745 103.13 81.177 103.598 81.177L103.266 86.9489C103.071 88.1579 103.286 87.9824 104.32 87.9824C104.905 85.4864 104.807 85.2329 106.602 82.9905C106.953 82.542 107.324 81.957 107.773 81.645C107.773 82.776 107.714 85.5644 107.539 86.5394C107.422 87.1634 107.305 87.2999 107.305 88.1189C107.929 88.0994 108.085 87.8654 108.651 87.6704C109.646 87.3389 109.938 87.8654 109.938 86.7929C109.411 86.8124 109.372 86.9099 108.748 86.9099C108.885 86.5979 109.099 80.4945 109.099 80.1045C107.792 80.1045 107.929 80.2605 106.31 82.23C105.666 83.01 104.963 84.2969 104.554 84.7649C104.671 83.283 105.022 81.6255 105.022 79.9875C104.32 80.1435 103.715 80.6895 102.408 80.6895Z" fill="white"/>
<path fill-rule="evenodd" clip-rule="evenodd" d="M154.555 83.5754C154.555 80.1825 156.954 79.6365 156.954 81.294C156.954 83.4779 156.662 83.0685 154.555 83.5754ZM153.228 84.7649C153.228 85.6814 153.443 86.4614 153.794 87.0854C154.906 89.0158 158.496 88.1579 158.496 85.1159H157.91C157.91 87.3584 155.394 87.9044 154.711 86.1494C154.574 85.8179 154.438 84.7064 154.438 84.2774C154.867 84.0824 155.608 84.0239 156.193 83.9069C156.759 83.7704 157.344 83.5754 157.91 83.4389C158.125 82.4835 158.242 81.5475 157.774 80.709C156.896 79.2075 153.228 79.383 153.228 84.7649Z" fill="white"/>
<path fill-rule="evenodd" clip-rule="evenodd" d="M111.733 83.5754C111.733 81.4305 113.06 79.656 113.918 80.67C114.386 81.216 114.191 82.3665 113.898 82.8539C113.567 83.3804 112.474 83.4974 111.733 83.5754ZM110.406 84.7649C110.406 89.6203 115.674 88.7233 115.674 85.1159H115.089C115.089 87.8848 111.733 87.8068 111.733 85.2329V84.1604C112.786 84.1604 114.113 83.6729 115.089 83.4389C116.044 79.2855 112.943 79.6365 112.065 80.319C110.816 81.255 110.406 83.2244 110.406 84.7649Z" fill="white"/>
<path fill-rule="evenodd" clip-rule="evenodd" d="M131.944 83.5754C131.964 82.659 132.432 80.4555 133.622 80.4555C133.934 80.4555 133.953 80.514 134.227 80.5725C134.909 83.5559 133.7 83.166 131.944 83.5754ZM130.754 84.1604C130.754 85.6424 130.696 88.1189 133.134 88.1189C134.656 88.1189 135.885 86.8514 135.885 85.1159H135.417C135.183 87.8459 131.944 87.9239 131.944 84.9989V84.1604C132.549 84.1604 133.68 83.9069 134.285 83.7509C135.319 83.4974 135.534 83.3804 135.534 81.8985C135.534 78.915 130.754 78.9345 130.754 84.1604Z" fill="white"/>
<path fill-rule="evenodd" clip-rule="evenodd" d="M175 84.6479L205.746 84.5309C205.726 84.1799 205.746 84.0434 205.394 84.0434H174.649C174.649 84.4334 174.61 84.6479 175 84.6479Z" fill="white"/>
<path fill-rule="evenodd" clip-rule="evenodd" d="M46.7689 84.5309H63.4098V84.0434H32.6641C32.2739 84.0434 31.8057 84.6674 33.2493 84.6479C36.1561 84.6089 40.8187 84.7649 43.2963 84.6284C43.8426 84.6089 43.5499 84.5894 44.0377 84.6284C45.5984 84.7259 46.2226 84.5309 46.7689 84.5309Z" fill="white"/>
<path fill-rule="evenodd" clip-rule="evenodd" d="M122.97 78.5445C122.911 79.2855 122.853 78.8955 122.853 80.1045C122.053 80.1045 121.585 79.9095 121.682 80.631C121.78 81.1965 121.663 80.826 122.736 80.826C122.736 81.918 122.502 82.7175 122.502 83.9264C122.502 87.4754 122.014 87.9824 124.18 87.9824C125.389 87.9824 126.326 87.1049 126.326 85.7204C126.326 85.3499 126.189 85.3889 125.838 85.3694C125.74 86.6369 125.194 87.6509 123.926 87.0269C123.497 85.2134 123.926 82.893 123.926 80.826H125.721C125.74 80.1825 126.033 80.163 125.389 80.085C125.038 80.0655 124.414 80.1045 124.043 80.1045C124.102 79.5975 124.238 78.8175 124.297 78.3105C123.731 78.3105 123.497 78.5055 122.97 78.5445Z" fill="white"/>
<path fill-rule="evenodd" clip-rule="evenodd" d="M166.514 78.5445C166.514 79.266 166.397 79.5 166.397 80.1045H165.324C165.324 81.1575 165.167 80.826 166.279 80.826C166.279 81.801 166.162 82.308 166.162 83.322V87.3974C166.162 87.8849 168.152 88.5479 169.362 87.2414C169.869 86.6954 169.869 86.3639 169.869 85.3694C168.972 85.4279 169.674 85.9349 169.011 86.7734C168.562 87.3194 168.094 87.3389 167.469 87.0269C167.118 85.5449 167.469 82.4445 167.469 80.826H169.264L169.401 80.1045H167.704C167.704 79.305 167.84 78.993 167.84 78.3105C167.274 78.3105 167.021 78.5055 166.514 78.5445Z" fill="white"/>
<path fill-rule="evenodd" clip-rule="evenodd" d="M159.1 81.06V81.411C159.939 81.411 160.076 81.1965 160.778 81.177C160.778 82.2105 160.544 83.4974 160.524 84.5114C160.524 85.7594 160.407 86.6759 160.407 87.9823C161.558 87.9823 161.285 88.0213 161.461 87.1244L162.397 84.1214C162.69 83.3609 163.217 82.074 163.919 81.7035C164.699 81.294 164.719 81.9375 164.719 80.4555C164.719 79.9485 163.821 79.578 162.807 81.645C162.651 81.9765 162.475 82.386 162.339 82.7369L162.027 83.4974C162.007 83.5364 161.948 83.6339 161.929 83.6534L162.085 80.1045C161.383 80.163 160.641 80.592 159.803 80.6895C159.393 80.7285 159.1 80.6115 159.1 81.06Z" fill="white"/>
<path fill-rule="evenodd" clip-rule="evenodd" d="M117.117 82.1325C117.117 83.4585 118.347 84.2579 119.205 84.8234C120.297 85.5644 120.375 87.5144 118.307 87.5144C116.883 87.5144 117.117 85.7594 117.117 84.9989C116.279 85.0184 116.552 85.1549 116.493 85.9544C116.474 86.4614 116.396 86.8124 116.396 87.5144C117.703 88.1969 119.029 88.4114 120.2 87.3584C120.961 86.6564 121.39 85.3889 120.649 84.3359C120.063 83.4585 118.19 82.971 118.19 81.528C118.19 80.436 119.868 79.6365 119.868 81.8985H120.336V80.3385C120.336 79.5585 117.117 79.539 117.117 82.1325Z" fill="white"/>
<path fill-rule="evenodd" clip-rule="evenodd" d="M79.1924 81.06V81.411C80.0313 81.411 80.1679 81.1965 80.8702 81.177C80.8702 82.4055 80.4995 85.4084 80.4995 87.5144V87.9824C82.0017 87.9824 80.9872 88.0994 82.4894 84.1214C82.7821 83.322 83.2698 82.074 84.0306 81.7035C84.811 81.294 84.811 81.918 84.811 80.4555C84.811 79.968 83.9916 79.578 82.9186 81.567L82.1383 83.4C82.0017 83.6535 82.0602 83.556 81.9432 83.6924L82.1773 80.1045C81.6896 80.1435 81.2214 80.3775 80.6751 80.514C79.5436 80.8065 79.1924 80.553 79.1924 81.06Z" fill="white"/>
<path fill-rule="evenodd" clip-rule="evenodd" d="M93.824 85.6034L93.8826 85.1354C93.2973 85.0964 93.6289 84.9209 93.4339 85.4084C93.3363 85.8959 93.1802 86.9879 93.1802 87.5144C93.5704 87.6119 93.4143 87.6314 93.863 87.8069C94.6824 88.1189 95.5993 88.2164 96.4577 87.7874C97.2966 87.3779 98.9158 85.4474 96.8674 83.712C96.4772 83.4 95.97 83.166 95.6188 82.815C94.858 82.0545 94.6629 80.4555 96.3016 80.4555C96.6528 80.982 96.6528 81.0405 96.6528 81.8985H97.2576V80.1045C96.5748 79.9485 96.1456 79.7925 95.4042 80.0265C93.9606 80.475 93.746 82.1715 94.2142 83.1465C94.7604 84.2384 96.1651 84.6479 96.6138 85.4084C97.3551 86.7539 95.8724 88.0409 94.5654 87.3194C93.8435 86.9294 94.0581 86.4419 93.824 85.6034Z" fill="white"/>
<path fill-rule="evenodd" clip-rule="evenodd" d="M75.6028 80.6895V81.411C76.0711 81.372 76.4612 81.216 76.9294 81.177C76.9294 82.3665 76.988 83.7119 76.9294 84.8819C76.8514 86.0324 76.5588 87.0659 76.5588 88.2359C76.988 88.1969 77.5732 88.0214 77.8854 87.8654C77.8854 87.0269 77.9829 85.7984 78.0805 85.0964L78.3536 80.9235C78.4121 79.6755 78.8413 79.929 76.9685 80.4945C76.4807 80.6505 76.2076 80.6895 75.6028 80.6895Z" fill="white"/>
<path fill-rule="evenodd" clip-rule="evenodd" d="M91.3854 82.971C91.9317 82.971 91.9121 83.0295 92.3608 81.918C92.6145 81.294 93.5704 79.734 93.4924 79.3245C93.4924 79.305 93.2387 78.681 93.2192 78.6421C93.0827 78.3106 93.0241 78.2911 92.9461 77.9401H92.4779C92.4779 79.461 91.9902 80.67 91.4634 81.957C91.2879 82.386 90.7611 82.971 91.3854 82.971Z" fill="white"/>
<path fill-rule="evenodd" clip-rule="evenodd" d="M76.6758 76.9846C76.6758 78.3105 78.5877 78.6225 78.5877 76.8676C78.5877 75.5611 76.6758 75.6976 76.6758 76.9846Z" fill="white"/>
<path fill-rule="evenodd" clip-rule="evenodd" d="M3.10833 67.8392V65.9868L4.43493 66.0063C5.00068 65.9088 4.57149 66.0258 4.78608 65.8503L3.01079 65.8698C2.95226 66.3963 2.89374 67.3713 3.10833 67.8392Z" fill="white"/>
<path fill-rule="evenodd" clip-rule="evenodd" d="M93.4338 85.4084C93.6289 84.9209 93.2973 85.0964 93.8825 85.1354L93.824 85.6034C94.0386 85.4084 94.0191 85.8374 94.0191 84.9989H93.4338V85.4084Z" fill="white"/>
<path d="M87.225 102.78H86.4711C86.0726 102.179 85.7692 101.554 85.5609 100.905C85.3526 100.257 85.2484 99.6291 85.2484 99.0223C85.2484 98.2697 85.3773 97.5575 85.6351 96.8856C85.8591 96.3023 86.1429 95.7645 86.4867 95.2723H87.2367C86.8799 96.0614 86.6338 96.7333 86.4984 97.288C86.3656 97.84 86.2992 98.426 86.2992 99.0458C86.2992 99.4729 86.3383 99.9104 86.4164 100.358C86.4971 100.806 86.6065 101.232 86.7445 101.636C86.8357 101.901 86.9958 102.283 87.225 102.78ZM90.3148 101.097V95.37H91.4398L93.7836 99.1942V95.37H94.8578V101.097H93.6976L91.389 97.3622V101.097H90.3148ZM95.8226 98.9637C95.8226 98.5992 95.9125 98.2463 96.0922 97.9052C96.2719 97.564 96.5258 97.3036 96.8539 97.1239C97.1846 96.9442 97.5531 96.8544 97.9594 96.8544C98.587 96.8544 99.1013 97.0588 99.5023 97.4677C99.9034 97.8739 100.104 98.3882 100.104 99.0106C100.104 99.6382 99.9008 100.159 99.4945 100.573C99.0909 100.985 98.5817 101.19 97.9672 101.19C97.587 101.19 97.2237 101.104 96.8773 100.932C96.5336 100.761 96.2719 100.509 96.0922 100.179C95.9125 99.8453 95.8226 99.4403 95.8226 98.9637ZM96.9476 99.0223C96.9476 99.4338 97.0453 99.7489 97.2406 99.9677C97.4359 100.186 97.6768 100.296 97.9633 100.296C98.2497 100.296 98.4893 100.186 98.682 99.9677C98.8773 99.7489 98.975 99.4312 98.975 99.0145C98.975 98.6083 98.8773 98.2958 98.682 98.077C98.4893 97.8583 98.2497 97.7489 97.9633 97.7489C97.6768 97.7489 97.4359 97.8583 97.2406 98.077C97.0453 98.2958 96.9476 98.6109 96.9476 99.0223ZM100.967 101.097V99.9989H102.065V101.097H100.967ZM105.432 101.097V95.37H107.866C108.478 95.37 108.922 95.4221 109.198 95.5262C109.476 95.6278 109.699 95.8101 109.866 96.0731C110.032 96.3361 110.116 96.6369 110.116 96.9755C110.116 97.4052 109.989 97.7606 109.737 98.0419C109.484 98.3205 109.106 98.4963 108.604 98.5692C108.854 98.715 109.06 98.8752 109.221 99.0497C109.385 99.2242 109.605 99.5341 109.881 99.9794L110.58 101.097H109.198L108.362 99.8505C108.065 99.4052 107.862 99.1252 107.752 99.0106C107.643 98.8934 107.527 98.814 107.405 98.7723C107.282 98.7281 107.088 98.7059 106.823 98.7059H106.588V101.097H105.432ZM106.588 97.7919H107.444C107.998 97.7919 108.345 97.7684 108.483 97.7216C108.621 97.6747 108.729 97.594 108.807 97.4794C108.885 97.3648 108.924 97.2216 108.924 97.0497C108.924 96.857 108.872 96.702 108.768 96.5848C108.666 96.465 108.522 96.3895 108.334 96.3583C108.241 96.3453 107.959 96.3387 107.491 96.3387H106.588V97.7919ZM111.209 101.097V95.37H115.455V96.3387H112.366V97.6083H115.241V98.5731H112.366V100.132H115.565V101.097H111.209ZM119.209 98.9911V98.0262H121.702V100.307C121.459 100.542 121.108 100.749 120.647 100.929C120.189 101.106 119.724 101.194 119.252 101.194C118.653 101.194 118.131 101.069 117.686 100.819C117.241 100.567 116.906 100.207 116.682 99.7411C116.458 99.2723 116.346 98.7632 116.346 98.2137C116.346 97.6174 116.471 97.0874 116.721 96.6239C116.971 96.1604 117.337 95.8049 117.819 95.5575C118.186 95.3674 118.643 95.2723 119.19 95.2723C119.901 95.2723 120.455 95.4221 120.854 95.7216C121.255 96.0184 121.513 96.4299 121.627 96.9559L120.479 97.1708C120.398 96.8895 120.246 96.6682 120.022 96.5067C119.8 96.3427 119.523 96.2606 119.19 96.2606C118.685 96.2606 118.282 96.4208 117.983 96.7411C117.686 97.0614 117.537 97.5367 117.537 98.1669C117.537 98.8466 117.689 99.357 117.991 99.6981C118.293 100.037 118.689 100.206 119.178 100.206C119.42 100.206 119.662 100.159 119.905 100.065C120.149 99.969 120.359 99.8531 120.534 99.7177V98.9911H119.209ZM122.764 101.097V99.9989H123.862V101.097H122.764ZM129.791 101.097H128.694V96.9598C128.293 97.3348 127.82 97.6122 127.276 97.7919V96.7958C127.562 96.702 127.873 96.5249 128.209 96.2645C128.545 96.0015 128.776 95.6955 128.901 95.3466H129.791V101.097ZM135.143 100.077V101.097H131.295C131.337 100.711 131.462 100.347 131.67 100.003C131.879 99.6565 132.29 99.1981 132.905 98.6278C133.399 98.1669 133.703 97.8544 133.815 97.6903C133.966 97.4637 134.041 97.2398 134.041 97.0184C134.041 96.7736 133.975 96.5861 133.842 96.4559C133.712 96.3231 133.531 96.2567 133.299 96.2567C133.07 96.2567 132.888 96.3257 132.752 96.4637C132.617 96.6018 132.539 96.8309 132.518 97.1512L131.424 97.0419C131.489 96.4377 131.694 96.0041 132.037 95.7411C132.381 95.4781 132.811 95.3466 133.327 95.3466C133.892 95.3466 134.336 95.4989 134.659 95.8036C134.981 96.1083 135.143 96.4872 135.143 96.9403C135.143 97.1981 135.096 97.4442 135.002 97.6786C134.911 97.9104 134.765 98.1538 134.565 98.4091C134.432 98.5783 134.192 98.8218 133.846 99.1395C133.5 99.4572 133.28 99.6682 133.186 99.7723C133.095 99.8765 133.021 99.9781 132.963 100.077H135.143ZM138.045 102.78C138.261 102.317 138.414 101.961 138.502 101.714C138.591 101.466 138.673 101.181 138.748 100.858C138.824 100.535 138.88 100.229 138.916 99.9403C138.953 99.6486 138.971 99.3505 138.971 99.0458C138.971 98.426 138.905 97.84 138.772 97.288C138.639 96.7333 138.394 96.0614 138.037 95.2723H138.784C139.177 95.8322 139.481 96.426 139.698 97.0536C139.916 97.6812 140.026 98.3179 140.026 98.9637C140.026 99.508 139.94 100.091 139.768 100.714C139.573 101.412 139.251 102.1 138.803 102.78H138.045Z" fill="white"/>
<path fill-rule="evenodd" clip-rule="evenodd" d="M70.2965 17.9787C70.5891 18.3882 70.7061 19.4801 70.9793 20.0651C71.428 21.1376 72.2668 22.4636 73.0082 23.3216C73.2423 23.5751 73.3593 23.8091 73.6129 24.0236C73.9251 24.2966 74.0616 24.3941 74.2957 24.667C75.7589 26.266 78.5877 28.138 80.4605 29.074C82.8796 30.3024 85.2011 31.3749 87.9324 32.2914C88.8298 32.5839 95.6968 34.7094 96.165 34.4559C95.1701 34.5924 91.678 34.2414 90.5465 34.0854C90.9562 34.4754 95.4042 34.6509 96.0285 34.6509C95.3652 35.0994 92.3803 35.1578 91.6585 35.1578C87.7178 35.1578 83.0357 33.9489 79.29 32.8959L76.5392 31.9794C72.618 30.5754 69.282 29.2885 65.7509 26.929C65.829 27.2215 66.1216 27.514 66.3167 27.787L67.6042 29.3275C67.8969 29.6395 67.9749 29.8149 68.248 30.1074L70.4525 32.1744C72.9301 34.6899 78.5486 38.1413 81.7091 39.7208C82.3333 40.0328 82.9381 40.3448 83.6014 40.6762C83.9526 40.8517 84.2257 40.9297 84.5768 41.1052C84.9865 41.3002 85.1816 41.4172 85.6303 41.5927L91.8731 43.9717C92.4974 44.2057 93.4728 44.5762 94.1361 44.6932C94.4093 44.5372 102.154 44.6542 103.247 44.6347C112.182 44.5372 120.551 44.4982 129.388 42.9187C136.626 41.6122 143.747 39.2333 149.599 35.3723C150.321 34.8849 152.331 33.4419 152.916 32.8764L154.067 31.6869C154.262 31.4919 154.496 31.3164 154.672 31.1214C154.906 30.9069 154.808 31.0824 154.886 30.7899L153.306 31.8624C149.424 34.4559 144.293 36.0158 139.689 36.9323C138.187 37.2443 136.626 37.4783 135.124 37.6538L131.515 38.0048C131.027 38.0048 130.598 37.9658 130.13 38.0438L120.024 37.3808C121.409 37.3808 125.662 37.0688 126.93 36.8933L133.31 35.8403C135.339 35.4308 137.289 34.9044 139.279 34.3974C140.294 34.1439 141.113 33.8514 142.108 33.5589C143.025 33.2859 144.098 32.9349 144.917 32.6034C145.795 32.2524 146.693 31.9989 147.59 31.6284C148.507 31.2384 149.365 30.9264 150.243 30.5169L152.74 29.347C152.896 29.269 152.818 29.308 152.994 29.2105L156.974 27.085C159.081 25.8175 161.032 24.4331 162.924 22.8731C163.314 22.5806 163.665 22.3271 163.919 21.9371C163.548 22.0346 163.217 22.3661 162.904 22.5416C158.652 25.1155 153.872 26.422 149.092 27.748C146.517 28.4695 143.279 29.0155 140.625 29.542C139.631 29.737 138.675 29.8539 137.641 30.0099C133.934 30.6144 128.452 30.9849 124.804 30.9849C123.38 30.9849 119.595 30.8289 118.542 30.5364L118.385 30.4779C118.034 30.4779 118.268 30.5364 118.19 30.2829C117.82 30.2634 116.044 30.0684 115.693 29.8539C117.391 29.62 119.107 29.503 120.805 29.3275C125.487 28.84 130.754 28.021 135.358 27.1435C144.995 25.2715 155.472 21.7031 163.47 16.2237C164.075 15.8142 164.602 15.4242 165.148 15.0342C166.377 14.1567 167.489 13.1623 168.66 12.2458L169.752 11.2903C170.532 10.6078 173.81 7.17588 174.532 6.23989L176.951 3.15895C177.126 2.96395 177.438 2.61296 177.36 2.53496C177.595 2.37897 177.751 2.22297 177.848 1.83298C177.38 2.14497 176.463 3.15895 175.995 3.62694L174.063 5.36241C171.469 7.66337 167.274 10.5298 164.329 12.2848C163.938 12.5188 163.607 12.7333 163.178 12.9673C162.729 13.2013 162.417 13.3963 161.988 13.6108C161.753 13.7473 161.675 13.8058 161.422 13.9422L158.339 15.5412C153.326 18.0372 147.024 20.2016 141.386 20.8451C140.918 20.9036 138.772 21.1181 138.304 21.0401C137.758 20.9426 138.109 21.1376 137.914 20.8451V20.8646C138.479 20.4356 139.143 20.2016 139.787 19.8701C144.469 17.4132 147.863 15.8142 152.526 12.9868C153.774 12.2263 154.789 11.5048 155.901 10.6858C156.213 10.4713 156.467 10.2958 156.74 10.0813L158.983 8.15086C160.29 7.11738 160.251 6.88338 161.071 5.9864L163.958 2.24247C163.977 2.22297 164.016 2.16447 164.036 2.18397L164.641 0.721497C164.387 0.896993 163.217 2.80796 162.222 3.78294C160.29 5.7134 159.393 6.41539 157.052 7.95586C154.125 9.92532 150.672 11.5828 147.239 12.9868C145.464 13.7083 143.688 14.3517 141.815 14.9757C135.339 17.1207 127.574 18.8562 120.766 19.8506C116.864 20.3966 111.167 21.1376 107.305 21.2351L103.754 21.4301C103.149 21.4496 102.525 21.4301 101.92 21.4301C101.296 21.4496 100.945 21.5471 100.203 21.5471C98.9548 21.5276 97.6672 21.5861 96.4382 21.5471L89.376 21.1961C88.8688 21.1181 88.1274 21.0986 87.6787 21.0401C83.1332 20.5721 81.1433 20.4161 76.2661 19.4411L71.8181 18.4077C71.2914 18.2712 70.8037 18.0957 70.2965 17.9787Z" fill="#D4B982"/>
<path fill-rule="evenodd" clip-rule="evenodd" d="M138.421 9.55482C138.128 9.30132 136.782 8.71634 136.451 8.57984C136.041 8.40434 135.729 8.28734 135.358 8.13135L129.876 6.10338C126.111 5.0699 124.492 4.36792 120.122 3.76343C117.625 3.41244 113.079 3.04194 110.367 3.04194C109.704 3.06144 109.529 2.94444 108.943 2.94444H99.8912C98.7792 2.94444 98.0574 3.04194 96.9454 3.04194L102.154 1.94996C103.949 1.59897 111.128 0.877483 113.508 0.818985C114.328 0.799485 115.713 0.779985 116.513 0.643488L119.517 0.409492C118.581 0.409492 116.532 0.0974982 114.835 0.0974982C113.879 0.0974982 113.333 0 112.396 0H104.866C103.93 0 103.247 0.116998 102.447 0.0974982C101.491 0.0974982 100.808 0.214496 99.9888 0.194996C99.4425 0.194996 98.2915 0.272995 97.7258 0.370493C96.9454 0.487491 96.1456 0.428992 95.3457 0.54599C92.5755 0.877483 89.1029 1.20898 86.4107 1.75497C82.3139 2.59345 80.5581 2.90545 76.2857 4.23142L69.1065 7.21486C68.5212 7.52686 68.0335 7.76085 67.4482 8.09235C66.9215 8.38484 66.4143 8.69684 65.9265 9.02833C65.3998 9.37932 64.9121 9.67182 64.4049 10.0423C62.8442 11.1928 61.8492 11.7583 63.0783 12.6358C63.5465 12.9673 64.2098 13.2987 64.7365 13.4937C65.751 13.8837 70.1014 15.2097 70.7062 15.0927L73.7105 13.1428C74.0031 12.9673 74.2177 12.8893 74.5104 12.7333L76.2076 11.8948C78.3731 10.8418 82.3334 9.51582 84.6549 8.93083C85.9815 8.61884 87.2691 8.30684 88.6737 7.99485C92.5365 7.09787 96.009 6.88337 99.7352 6.33738L106.797 5.88889C108.26 5.88889 113.06 5.67439 114.269 5.84989C115.069 5.96689 115.947 5.84989 116.766 5.88889L119.166 6.04489C119.985 6.16188 120.688 6.12288 121.507 6.22038L126.013 6.70787C128.354 6.92237 132.178 7.78035 134.519 8.36534L138.421 9.55482Z" fill="#523B2C"/>
<path fill-rule="evenodd" clip-rule="evenodd" d="M94.1362 44.6931L98.0574 45.8241C99.423 46.1556 100.75 46.4481 102.193 46.7796C104.437 47.2866 106.602 47.5011 108.768 47.8131C109.626 47.9496 110.25 47.9886 111.167 48.0666C113.196 48.2226 116.24 48.4566 118.386 48.4566C120.434 48.4566 123.633 48.2031 125.604 48.0471C129.174 47.7741 134.89 46.3506 138.05 45.1416C140.313 44.2837 142.889 43.0942 144.898 41.7292C145.854 41.0857 147.668 39.8572 148.507 39.0383C149.17 38.3753 149.775 37.9853 150.477 37.1468C150.731 36.8543 150.77 36.7763 151.043 36.5033C152.038 35.5088 153.521 33.2664 154.262 31.9989C154.399 31.7844 154.652 31.3944 154.672 31.1214C154.496 31.3164 154.262 31.4919 154.067 31.6869L152.916 32.8764C152.331 33.4419 150.321 34.8848 149.6 35.3723C143.747 39.2332 136.626 41.6122 129.388 42.9187C120.551 44.4981 112.182 44.5371 103.247 44.6346C102.154 44.6541 94.4093 44.5371 94.1362 44.6931Z" fill="#5E4735"/>
<path fill-rule="evenodd" clip-rule="evenodd" d="M90.5465 34.0853C91.678 34.2413 95.1701 34.5923 96.1651 34.4558C95.6968 34.7093 88.8298 32.5839 87.9324 32.2914C85.2011 31.3749 82.8796 30.3024 80.4605 29.0739C78.5877 28.138 75.7589 26.266 74.2958 24.667C74.0616 24.394 73.9251 24.2965 73.6129 24.0235C73.3593 23.809 73.2423 23.575 73.0082 23.3216C72.2668 22.4636 71.428 21.1376 70.9793 20.0651C70.7061 19.4801 70.5891 18.3881 70.2965 17.9787C70.1404 17.9007 69.2625 17.6472 69.0089 17.5692C65.8095 16.5747 63.0977 15.4827 60.1519 13.9227C61.42 19.3241 67.4092 24.6085 71.9937 27.3775C76.1686 29.8734 80.519 31.7454 85.2402 33.0324C86.0205 33.2469 89.7272 34.2413 90.5465 34.0853Z" fill="#442E20"/>
<path fill-rule="evenodd" clip-rule="evenodd" d="M118.19 30.2829L118.386 30.4779L120.883 30.6144C122.541 30.8679 127.164 30.5169 128.745 30.3609C131.944 30.0684 135.222 29.3664 138.031 28.6645L143.259 27.1825C143.688 27.0655 143.864 26.9485 144.313 26.812L148.312 25.33C150.399 24.472 151.921 23.8675 154.028 22.8341L157.559 20.9621C158.183 20.6111 158.691 20.3381 159.315 19.9676C162.846 17.8422 164.075 16.9062 167.391 14.3322C168.621 13.3572 170.513 11.5633 171.625 10.4323C173.186 8.87232 175.292 6.12288 176.463 4.30941C176.717 3.93892 177.419 2.96393 177.36 2.53494C177.438 2.61294 177.126 2.96393 176.951 3.15893L174.532 6.23987C173.81 7.17586 170.532 10.6078 169.752 11.2903L168.66 12.2458C167.489 13.1622 166.377 14.1567 165.148 15.0342C164.602 15.4242 164.075 15.8142 163.47 16.2237C155.472 21.7031 144.995 25.2715 135.358 27.1435C130.754 28.021 125.487 28.8399 120.805 29.3274C119.107 29.5029 117.391 29.6199 115.693 29.8539C116.044 30.0684 117.82 30.2634 118.19 30.2829Z" fill="#654F3A"/>
<path fill-rule="evenodd" clip-rule="evenodd" d="M137.914 20.8451C138.616 21.0401 145.698 18.4857 146.381 18.2127L150.243 16.4967C151.511 15.7947 152.604 15.1902 153.755 14.4297C154.321 14.0397 154.828 13.7082 155.374 13.2988C158.964 10.6078 161.636 7.25387 163.626 3.25644C163.763 2.94445 163.977 2.57396 163.958 2.24246L161.071 5.98639C160.251 6.88337 160.29 7.11737 158.983 8.15085L156.74 10.0813C156.467 10.2958 156.213 10.4713 155.901 10.6858C154.789 11.5048 153.774 12.2263 152.526 12.9868C147.863 15.8142 144.469 17.4132 139.787 19.8701C139.143 20.2016 138.48 20.4356 137.914 20.8646V20.8451Z" fill="#69533E"/>
<path fill-rule="evenodd" clip-rule="evenodd" d="M164.037 21.8396L163.919 21.938L164.037 21.8396Z" fill="#B7ADA5"/>
<path fill-rule="evenodd" clip-rule="evenodd" d="M138.421 9.55481L138.616 9.67181L138.421 9.55481Z" fill="#D1CBC5"/>
</svg>
